<?xml version="1.0" encoding="UTF-8"?>
<svg width="512" height="512" viewBox="0 0 512 512" fill="none" xmlns="http://www.w3.org/2000/svg">
  <!-- Family Accounting App - Primary Logo (transparent bg, wallet + banknote + Qarz-al-Hasanah hands) -->
  <defs>
    <!-- Accent gradient for flap/accents -->
    <linearGradient id="accent" x1="128" y1="96" x2="384" y2="416" gradientUnits="userSpaceOnUse">
      <stop offset="0" stop-color="#22D3EE"/>
      <stop offset="1" stop-color="#10B981"/>
    </linearGradient>
    <filter id="shadow" x="-20%" y="-20%" width="140%" height="140%" color-interpolation-filters="sRGB">
      <feDropShadow dx="0" dy="10" stdDeviation="14" flood-color="#000" flood-opacity="0.18"/>
    </filter>
  </defs>

  <!-- Wallet body -->
  <g filter="url(#shadow)">
    <path d="M120 212 a28 28 0 0 1 28-28 h216 a28 28 0 0 1 28 28 v148 a28 28 0 0 1-28 28 H148 a28 28 0 0 1-28-28 V212 z" fill="#FFFFFF"/>
    <!-- Wallet flap -->
    <path d="M148 184 h216 a28 28 0 0 1 28 28 v8 H120 v-8 a28 28 0 0 1 28-28 z" fill="url(#accent)"/>
    <!-- Wallet button -->
    <circle cx="356" cy="278" r="8" fill="#CBD5E1"/>
  </g>

  <!-- Banknote protruding from wallet (clear currency symbol) -->
  <g filter="url(#shadow)">
    <rect x="186" y="156" width="196" height="84" rx="12" fill="#0EA5E9"/>
    <rect x="200" y="168" width="168" height="60" rx="10" fill="#38BDF8"/>
    <!-- Currency glyph ($-like) built with strokes to be recognizable -->
    <path d="M232 180 c8-8 24-8 32 0 s8 24 -10 30 l-20 6 c-18 6 -18 28 2 34 c10 3 22 2 30-4"
          fill="none" stroke="#E0F2FE" stroke-width="4" stroke-linecap="round"/>
    <path d="M248 172 v88" stroke="#E0F2FE" stroke-width="4" stroke-linecap="round"/>
  </g>

  <!-- Qarz-al-Hasanah motif: giving hands + coin (charity) -->
  <g>
    <!-- Hands -->
    <path d="M170 344 c28 18 68 18 96 0" fill="none" stroke="#10B981" stroke-width="10" stroke-linecap="round"/>
    <path d="M246 344 c28 18 68 18 96 0" fill="none" stroke="#10B981" stroke-width="10" stroke-linecap="round"/>
    <!-- Coin above hands -->
    <circle cx="258" cy="320" r="16" fill="#F59E0B" stroke="#FBBF24" stroke-width="3"/>
    <!-- Crescent + star inside coin to hint benevolence -->
    <path d="M252 320 a8 8 0 1 0 8 -8 a6 6 0 1 1 -8 8 z" fill="#FFF7ED"/>
    <circle cx="263.5" cy="314.5" r="2.2" fill="#FFF7ED"/>
  </g>

  <!-- Subtle base curve -->
  <path d="M120 360 c52 34 220 34 272 0" stroke="#94A3B8" stroke-opacity="0.45" stroke-width="5" stroke-linecap="round"/>

  <!-- Monogram F (financial) subtle mark -->
  <path d="M172 260 h108 m-76 32 h76 m-108 52 h96" stroke="#64748B" stroke-width="12" stroke-linecap="round"/>
</svg>


